<svg height="200pt" viewBox="-7 0 444 444.90096" width="200pt" xmlns="http://www.w3.org/2000/svg"><path d="m371.449219 230.402344h58v152.296875h-58zm0 0" fill="#00acea"/><path d="m429.449219 209.402344v21h-58v-21c0-16.019532 12.984375-29 29-29s29 12.980468 29 29zm0 0" fill="#00efd1"/><path d="m429.449219 382.699219-28.5 62.203125-29.5-62.203125zm0 0" fill="#00efd1"/><path d="m342.75.101562c8.398438-.0312495 16.464844 3.285157 22.414062 9.214844 5.949219 5.929688 9.292969 13.984375 9.285157 22.382813v96.5h-63.296875v-96.5c-.019532-8.382813 3.304687-16.429688 9.234375-22.359375 5.929687-5.929688 13.976562-9.2539065 22.363281-9.238282zm0 0" fill="#00acea"/><path d="m342.75.101562c-8.410156-.0156245-16.484375 3.320313-22.429688 9.269532-5.949218 5.945312-9.285156 14.019531-9.269531 22.429687v303.5c.023438 11.304688-4.457031 22.15625-12.449219 30.148438-7.996093 7.996093-18.84375 12.476562-30.152343 12.453125-1 0-2 0-3-.101563-22.320313-1.550781-39.628907-20.125-39.597657-42.5v-43.300781h-175.300781v-.5l1.5-261.699219c.042969-7.960937 3.25-15.574219 8.917969-21.167969 5.664062-5.589843 13.320312-8.695312 21.28125-8.632812h260.5zm0 0" fill="#00efd1"/><g fill="#00acea"><path d="m265.550781 377.699219v.101562h-222.5c-11.300781.007813-22.140625-4.476562-30.132812-12.46875-7.988281-7.992187-12.476563-18.832031-12.46875-30.132812v-43.296875h225.5v43.296875c-.0625 22.390625 17.261719 40.984375 39.601562 42.5zm0 0"/><path d="m161.25 135.601562c1.871094 1.910157 4.429688 2.988282 7.101562 3 2.648438-.019531 5.191407-1.058593 7.097657-2.902343l48.101562-48.097657c3.894531-3.894531 3.894531-10.207031 0-14.101562s-10.207031-3.894531-14.101562 0l-41 41-19.898438-20.097656c-3.867187-3.921875-10.179687-3.96875-14.101562-.101563-3.921875 3.867188-3.964844 10.179688-.097657 14.101563zm0 0"/><path d="m258.351562 201.101562h-159.5c-5.523437 0-10 4.476563-10 10 0 5.523438 4.476563 10 10 10h159.597657c5.523437-.027343 9.980469-4.527343 9.953125-10.050781-.03125-5.523437-4.527344-9.976562-10.050782-9.949219zm0 0"/><path d="m195.351562 242h-96.5c-5.523437 0-10 4.476562-10 10s4.476563 10 10 10h96.5c5.523438 0 10-4.476562 10-10s-4.476562-10-10-10zm0 0"/></g></svg>